<?xml version="1.0" standalone="no"?>
<!DOCTYPE svg PUBLIC "-//W3C//DTD SVG 20010904//EN"
 "http://www.w3.org/TR/2001/REC-SVG-20010904/DTD/svg10.dtd">
<svg version="1.0" xmlns="http://www.w3.org/2000/svg"
 width="200.000000pt" height="200.000000pt" viewBox="0 0 200.000000 200.000000"
 preserveAspectRatio="xMidYMid meet">
<metadata>
Created by potrace 1.11, written by Peter Selinger 2001-2013
</metadata>
<g transform="translate(0.000000,200.000000) scale(0.100000,-0.100000)"
fill="#000000" stroke="none">
<path d="M158 1718 c-41 -8 -61 -35 -54 -72 11 -52 20 -56 130 -56 l102 0 177
-463 c97 -254 177 -466 177 -470 0 -4 -18 -25 -39 -46 -63 -63 -77 -145 -38
-221 63 -123 221 -148 314 -48 34 36 55 96 51 147 l-3 46 195 0 195 0 -3 -50
c-4 -62 27 -126 79 -168 51 -40 138 -48 196 -19 111 57 145 191 74 289 -56 78
-57 78 -493 81 l-386 3 -16 40 c-9 22 -14 43 -12 47 2 4 198 7 434 6 377 0
433 1 451 15 15 12 46 97 116 321 52 168 95 312 95 321 0 9 -8 27 -19 40 l-19
23 -672 1 -672 0 -40 108 c-26 68 -48 112 -60 118 -23 12 -211 17 -260 7z
m788 -408 c1 -19 5 -63 8 -97 3 -35 2 -63 -2 -64 -4 -1 -73 -2 -155 -3 l-147
-1 -31 80 c-17 44 -35 90 -40 103 l-9 22 187 -2 186 -3 3 -35z m380 -2 c-3
-24 -6 -69 -8 -100 -1 -33 -6 -58 -12 -59 -43 -4 -276 -4 -277 1 0 3 -2 12 -3
20 -2 8 -6 52 -10 98 l-6 82 161 0 161 0 -6 -42z m413 30 c0 -7 -15 -53 -32
-103 l-32 -90 -147 0 -147 0 6 85 c5 72 8 104 12 118 1 1 78 2 171 2 130 0
170 -3 169 -12z m-774 -270 c2 -7 6 -48 8 -90 5 -68 3 -78 -11 -79 -24 -1
-184 -1 -203 0 -11 1 -27 29 -48 84 -17 46 -31 86 -31 90 0 4 63 7 140 7 104
0 142 -3 145 -12z m340 -30 c-3 -24 -6 -64 -7 -90 0 -27 -3 -48 -7 -49 -26 -4
-241 -3 -242 1 0 3 -2 14 -4 25 -2 11 -5 50 -8 88 l-6 67 140 0 139 0 -5 -42z
m347 37 c6 -6 -40 -154 -52 -170 -7 -8 -152 -12 -227 -6 -8 1 -10 24 -7 79 3
42 7 83 9 90 3 9 40 12 138 12 74 0 136 -2 139 -5z m-816 -570 c11 -17 12 -28
3 -52 -18 -54 -88 -52 -109 3 -25 66 67 109 106 49z m770 0 c19 -30 2 -81 -31
-89 -53 -13 -99 38 -75 84 23 42 79 45 106 5z"/>
</g>
</svg>
